# xmcd
#
# Track frame offsets:
#	150
#	15189
#	28016
#	40908
#	57785
#	71961
#	85390
#	100812
#	114889
#	125256
#	139712
#	153808
#	169123
#	185172
#	199701
#	213757
#
# Disc length: 3025 seconds
#
# Revision: 0
# Processed by: cddbd v1.5.2PL0 Copyright (c) Steve Scherf et al.
# Submitted via: EasyCDDAExtractor 15.3.0.1
#
DISCID=cf0bcf10
DTITLE=Osvaldo Pugliese - Osvaldo Pugliese con sus grandes cantates
DYEAR=1993
DGENRE=
TTITLE0=Osvaldo Pugliese y Alberto Moran - El abrojito
TTITLE1=Osvaldo Pugliese y Roberto Chanel - Corrientes y Esmeralda
TTITLE2=Osvaldo Pugliese y Jorge Vidal - La cieguita
TTITLE3=Osvaldo Pugliese y Jorge Maciel - Esta noche de luna (feat. Jorge Maci
TTITLE3=el)
TTITLE4=Osvaldo Pugliese y Roberto Chanel - Por qué?
TTITLE5=Osvaldo Pugliese y Miguel Montero - Acquaforte
TTITLE6=Osvaldo Pugliese - Milongera (feat. Juan Carlos Cobos)
TTITLE7=Osvaldo Pugliese - Te quiero (feat. Abel Córdoba)
TTITLE8=Osvaldo Pugliese - Príncipe (feat. Alberto Morán)
TTITLE9=Osvaldo Pugliese - La abandoné y no sabía (feat. Roberto Chanel)
TTITLE10=Osvaldo Pugliese - Ventanita de arrabal (feat. Jorge Vidal)
TTITLE11=Osvaldo Pugliese - Adiós corazón (feat. Jorge Maciel)
TTITLE12=Osvaldo Pugliese - Caminito soleado (feat. Alberto Morán and Juan Carlo
TTITLE12=s Cobos)
TTITLE13=Osvaldo Pugliese - Dicha pasada (feat. Miguel Montero)
TTITLE14=Osvaldo Pugliese - Te aconsejo que me olvides (feat. Juan Carlos Cobo
TTITLE14=s)
TTITLE15=Osvaldo Pugliese - La canción de Buenos Aires (feat. Abel Córdoba)
EXTD=
EXTT0=
EXTT1=
EXTT2=
EXTT3=
EXTT4=
EXTT5=
EXTT6=
EXTT7=
EXTT8=
EXTT9=
EXTT10=
EXTT11=
EXTT12=
EXTT13=
EXTT14=
EXTT15=
PLAYORDER=
